Coordinates
version=1
nRows=19
nColumns=36
inDegrees=yes

Units are S.I. units (second, meters, Newtons, ...)
If the header above contains a line with 'inDegrees', this indicates whether rotational values are in degrees (yes) or radians (no).

endheader
time	pelvis_tilt	pelvis_list	pelvis_rotation	pelvis_tx	pelvis_ty	pelvis_tz	hip_flexion_r	hip_adduction_r	hip_rotation_r	knee_angle_r	knee_angle_r_beta	ankle_angle_r	subtalar_angle_r	mtp_angle_r	hip_flexion_l	hip_adduction_l	hip_rotation_l	knee_angle_l	knee_angle_l_beta	ankle_angle_l	subtalar_angle_l	mtp_angle_l	lumbar_extension	lumbar_bending	lumbar_rotation	arm_flex_r	arm_add_r	arm_rot_r	elbow_flex_r	pro_sup_r	arm_flex_l	arm_add_l	arm_rot_l	elbow_flex_l	pro_sup_l
      4.35000000	    -27.79637773	      4.67311197	     -7.61497586	      1.52012986	      0.74855942	      0.19467061	     74.74680308	      0.15004209	     -7.38827579	     75.44187019	      1.31670903	     37.29766844	     11.48283914	     -7.49999987	     94.44240838	    -12.29348534	      6.05777935	     39.23295816	      0.68474430	     -2.41436284	     13.28422963	     -7.49999987	    -22.14577317	      9.50482523	      9.39388875	     93.07573189	    -15.98517152	     79.38178785	    131.73528145	    101.43984710	     94.06075766	      2.33367993	     65.95935500	    129.48823789	    109.47989812
      4.36666670	    -28.15740112	      4.71885445	     -7.82414244	      1.51538621	      0.74556084	      0.19659087	     75.11757162	      0.27413752	     -7.44126304	     75.45289779	      1.31690150	     37.57699934	     11.81438794	     -7.49999987	     94.65064850	    -12.68008748	      6.48247376	     39.25954257	      0.68520828	     -2.01854021	     13.25506351	     -7.49999987	    -21.92867091	      9.74270445	      9.43107637	     92.41593202	    -15.73128832	     79.19491135	    130.85092892	    101.60984179	     93.64452166	      2.34785205	     66.67938825	    129.16584101	    109.52767705
      4.38333330	    -28.47773428	      4.77705737	     -7.86013010	      1.51521795	      0.74942416	      0.19669537	     75.06407163	      0.48319911	     -7.22904887	     74.85076762	      1.30639234	     37.41196617	     11.58148952	     -7.49999987	     94.32908996	    -12.92863309	      6.64106966	     38.46621644	      0.67136213	     -2.20026409	     13.33791486	     -7.49999987	    -22.06452952	      9.93118120	      9.34995028	     92.04057932	    -16.48524554	     82.25276521	    130.92304506	    101.07485003	     93.28784270	      2.52497170	     67.65927653	    129.07667752	    109.56612702
      4.40000000	    -28.75457314	      4.83240288	     -7.95878537	      1.51444715	      0.74461885	      0.19657184	     75.39734589	      0.77253112	     -7.04311521	     74.77053241	      1.30499197	     37.52097682	     11.65885082	     -7.49999987	     94.47790958	    -13.25927980	      6.68699718	     38.32261711	      0.66885585	     -2.09092221	     13.78684182	     -7.49999987	    -21.83503669	      9.98567768	      9.29067465	     91.80591481	    -16.20213297	     82.17178965	    131.98697562	    102.94866489	     93.40409178	      3.36495248	     66.88101637	    130.55189098	    109.57097130
      4.41666670	    -28.92714867	      4.82100451	     -7.85173116	      1.51431076	      0.75109336	      0.19611255	     75.19700206	      1.08370026	     -6.68824924	     74.04536289	      1.29233538	     37.43818610	     11.52122302	     -7.49999987	     94.13358076	    -13.32002605	      6.59121988	     37.68253890	      0.65768437	     -2.27450139	     14.01155507	     -7.49999987	    -21.96540399	     10.15647236	      8.98701245	     91.43480474	    -16.42028287	     82.52732435	    132.22643247	    102.98781391	     93.04305796	      3.35989325	     67.11082619	    130.55208461	    109.56522478
      4.43333330	    -28.94639946	      4.94366456	     -7.63386968	      1.51843878	      0.75227716	      0.19327786	     74.80184832	      1.26460113	     -6.06341888	     73.35379920	      1.28026531	     37.36772677	     10.84023236	     -7.49999987	     93.63537571	    -13.20067547	      6.10795395	     37.22473836	      0.64969425	     -2.54153130	     14.49520034	     -7.49999987	    -21.74044240	     10.45955460	      8.49385548	     90.98776650	    -17.16329966	     82.80885673	    132.66099122	    103.08067858	     92.67245071	      3.37499943	     67.29267746	    130.73052948	    109.54885824
      4.45000000	    -29.00653992	      5.04003913	     -7.20857270	      1.51765226	      0.74938350	      0.19382094	     74.91714184	      1.64993740	     -5.19846542	     73.34204468	      1.28006016	     37.28526044	      9.55047887	     -7.49999987	     93.67286293	    -12.95022015	      5.74847325	     37.71002628	      0.65816412	     -2.33193107	     14.64613531	     -7.49999987	    -21.17295180	     10.42166760	      7.93281876	     90.82023588	    -18.01369874	     82.01786333	    134.36857909	    103.82750345	     93.21962813	      3.74435108	     66.43382058	    131.30444676	    110.07419515
      4.46666670	    -28.91215603	      5.25167481	     -6.81555993	      1.51748995	      0.75830484	      0.19391330	     74.37689853	      2.09838250	     -4.03932907	     72.52861016	      1.26586305	     37.02744055	      8.29003276	     -7.49999987	     92.95380436	    -12.40223799	      5.38730334	     37.29408540	      0.65090458	     -2.71780507	     14.19214652	     -7.49999987	    -21.11985775	     10.32528837	      7.22324872	     91.44398125	    -18.22867567	     81.43629818	    134.66067089	    105.27528061	     93.62041676	      3.12921086	     66.75016157	    132.15972032	    110.21895259
      4.48333330	    -28.58928117	      5.35637512	     -6.87261606	      1.51731229	      0.75590650	      0.19471547	     73.91015538	      2.79416504	     -3.13280168	     72.21311399	      1.26035660	     37.22727000	      7.81722705	     -7.49999987	     92.59262857	    -12.22625411	      5.34332830	     37.69003616	      0.65781523	     -2.39594679	     13.77817699	     -7.49999987	    -20.86260384	     10.08251527	      6.69084271	     92.13133693	    -18.10725844	     81.00841025	    135.59425659	    105.47702907	     94.26640468	      2.89452465	     65.20815070	    133.68188836	    109.82026968
      4.50000000	    -28.19146341	      5.49129353	     -6.89461078	      1.51703469	      0.75698141	      0.19351639	     73.56177936	      3.42987175	     -2.21582007	     72.12873422	      1.25888390	     37.10876057	      7.33662477	     -7.49999987	     92.23091479	    -11.97628203	      5.32051361	     38.09875005	      0.66494863	     -1.94377057	     13.31100498	     -7.49999987	    -20.63739890	      9.79405058	      6.30481410	     93.02577235	    -18.24746484	     81.16979056	    136.38731865	    106.04842923	     95.10174705	      2.53358461	     64.32081155	    134.09578671	    109.64117130
      4.51666670	    -27.73769416	      5.41766382	     -6.82006548	      1.51299695	      0.76217467	      0.19610865	     72.99591795	      4.14532820	     -1.41503320	     71.67987108	      1.25104976	     36.53795923	      6.35171131	     -7.49999987	     91.68171465	    -11.70143353	      5.42467305	     38.13635961	      0.66560504	     -2.10082379	     12.49346801	     -7.49999987	    -20.60057765	      9.50552429	      6.22582168	     94.23997655	    -19.12378512	     81.17247030	    135.86943239	    106.13355862	     96.49293330	      2.14397561	     64.32505241	    133.34789157	    109.59708565
      4.53333330	    -27.29748869	      5.54667274	     -6.83438851	      1.51789069	      0.76700848	      0.19399948	     72.20092985	      4.63391236	     -0.50012175	     71.03640450	      1.23981915	     36.25624339	      5.57058120	     -7.49999987	     91.01912951	    -11.33197125	      5.40529653	     38.18380744	      0.66643316	     -2.27805498	     11.65510549	     -7.49999987	    -20.29248916	      9.06369965	      5.96961813	     94.89734901	    -19.33817701	     80.47896273	    136.81713413	    106.18908687	     97.11916610	      2.19708588	     63.33305061	    134.18326795	    109.44861992
      4.55000000	    -26.57800337	      5.45143943	     -6.75878059	      1.51846496	      0.77284349	      0.19406591	     70.91943449	      5.08527585	      0.28101458	     70.11763061	      1.22378352	     35.73787413	      4.79127905	     -7.49999987	     90.08620691	    -10.90255134	      5.51174592	     38.01875720	      0.66355249	     -2.74911582	     10.97120175	     -7.49999987	    -20.44294623	      8.72688102	      5.58415664	     95.13292960	    -20.06863704	     78.51944682	    137.01784458	    106.79120176	     97.77248865	      2.08916337	     62.62166398	    134.25532707	    109.38783167
      4.56666670	    -25.88320751	      5.46147138	     -6.70390124	      1.51890515	      0.77760355	      0.19434120	     69.67582942	      5.39935356	      1.03521513	     69.19562364	      1.20769146	     35.22381575	      3.98280262	     -7.49999987	     89.15523548	    -10.52228408	      5.38574098	     37.67491858	      0.65755137	     -3.07081716	     10.55288531	     -7.49999987	    -20.58361941	      8.50180167	      5.24595244	     95.97905971	    -20.91572252	     77.34083907	    136.48085525	    107.00070771	     98.67301226	      1.18834975	     61.83152173	    134.39763278	    109.19332001
      4.58333330	    -25.28090148	      5.52134776	     -6.41561233	      1.51906777	      0.78067514	      0.19406319	     68.71276145	      5.41103117	      1.56997433	     68.60463782	      1.19737681	     34.82702078	      3.40127359	     -7.49999987	     88.60215411	    -10.04161838	      5.22613455	     37.94611534	      0.66228465	     -3.12068412	     10.18366545	     -7.49999987	    -20.36384566	      8.17268315	      4.47227338	     96.56043974	    -20.84227762	     74.66869574	    135.87158315	    106.84486118	     99.48701944	      0.29182007	     61.14232641	    134.69728597	    109.36640117
      4.60000000	    -24.74959565	      5.55550562	     -6.26839396	      1.51938610	      0.78461926	      0.19341393	     67.93095638	      5.41931627	      1.93334754	     68.19598613	      1.19024449	     34.52087194	      3.12219125	     -7.49999987	     88.19637357	     -9.58593782	      5.16960013	     38.12158968	      0.66534726	     -3.30991714	      9.95429104	     -7.49999987	    -19.68804008	      7.90541977	      3.94241545	     96.67178257	    -21.06740033	     73.38753673	    135.85746267	    106.77993094	     99.03645371	     -0.72921308	     60.06154795	    135.98385982	    108.55295640
      4.61666670	    -24.54888761	      5.56271111	     -6.18302546	      1.52005947	      0.78964298	      0.19355174	     67.26648310	      5.44908153	      2.25155032	     67.55943809	      1.17913464	     34.43340330	      3.18353204	     -7.49999987	     88.11178018	     -9.22853827	      5.15344537	     38.32323770	      0.66886668	     -3.39678536	      9.94445574	     -7.49999987	    -18.93070088	      7.62182787	      3.82681901	     96.92729670	    -21.21303598	     73.24916358	    135.83199160	    106.77979273	     99.13174298	     -0.94014278	     60.04373984	    135.98066222	    108.54920878
      4.63333330	    -23.54712491	      5.60855344	     -6.23464901	      1.52468378	      0.79796589	      0.19773573	     65.53186362	      5.58778149	      2.76556554	     66.67722350	      1.16373709	     33.70267923	      2.26309636	     -7.49999987	     86.86632468	     -8.97225777	      5.05718503	     37.92261766	      0.66187454	     -3.72280849	      9.48371178	     -7.49999987	    -18.92024181	      6.98381806	      2.91455011	     96.34783359	    -20.26295751	     73.25598663	    135.79834041	    106.88704854	     99.07954422	     -2.33099508	     61.04864059	    136.35800269	    108.47056527
      4.65000000	    -23.01676137	      5.76826348	     -6.19086374	      1.52551684	      0.80375717	      0.19817669	     64.40685620	      5.48658489	      3.05456107	     65.92237481	      1.15056249	     33.15554708	      1.90871412	     -7.49999987	     86.05787911	     -8.65380373	      4.91358316	     37.59779535	      0.65620532	     -3.88736199	      9.31780231	     -7.49999987	    -18.36651876	      6.44436744	      2.39281737	     96.25973497	    -20.11054861	     73.14597556	    135.37913792	    105.43756822	     99.15278047	     -2.59953292	     61.46299087	    136.81086230	    106.97679436
